<svg xmlns="http://www.w3.org/2000/svg" viewBox="0 0 32 32">
  <defs>
    <linearGradient id="g" x1="0%" y1="0%" x2="100%" y2="100%">
      <stop offset="0%" style="stop-color:#10b981"/>
      <stop offset="100%" style="stop-color:#059669"/>
    </linearGradient>
  </defs>
  <rect width="32" height="32" rx="6" fill="#0b0c0e"/>
  <g transform="translate(5, 2) scale(0.85)">
    <path d="M13 4c-1 0-3 1-4 3-1.5 3-1 5 0 7l-3 4c-1 1.5-1 3 0 4h2l2-3 2 1v5c0 1 1 2 2 2h4c1 0 2-1 2-2v-5l2-1 2 3h2c1-1 1-2.5 0-4l-3-4c1-2 1.5-4 0-7-1-2-3-3-4-3-2 0-3 1-3 1s-1-1-3-1z" fill="url(#g)"/>
    <circle cx="11" cy="8" r="1.2" fill="#0b0c0e"/>
  </g>
</svg>
